<svg width="512" height="512" xmlns="http://www.w3.org/2000/svg">
  <defs>
    <linearGradient id="bgGradient" x1="0%" y1="0%" x2="100%" y2="100%">
      <stop offset="0%" style="stop-color:#EC4899;stop-opacity:1" />
      <stop offset="100%" style="stop-color:#8B5CF6;stop-opacity:1" />
    </linearGradient>
    <linearGradient id="heartGradient" x1="0%" y1="0%" x2="100%" y2="100%">
      <stop offset="0%" style="stop-color:#FFFFFF;stop-opacity:1" />
      <stop offset="100%" style="stop-color:#FDF2F8;stop-opacity:1" />
    </linearGradient>
  </defs>
  
  <!-- Background circle -->
  <circle cx="256" cy="256" r="256" fill="url(#bgGradient)"/>
  
  <!-- Gift box base -->
  <rect x="180" y="280" width="152" height="120" rx="8" fill="url(#heartGradient)" opacity="0.9"/>
  
  <!-- Gift box ribbon vertical -->
  <rect x="248" y="280" width="16" height="120" fill="#EC4899"/>
  
  <!-- Gift box ribbon horizontal -->
  <rect x="180" y="332" width="152" height="16" fill="#EC4899"/>
  
  <!-- Heart shape (gift bow) -->
  <path d="M256 200 C246 190, 230 190, 230 210 C230 190, 214 190, 204 200 C194 210, 194 230, 214 240 L256 280 L298 240 C318 230, 318 210, 308 200 C298 190, 282 190, 282 210 C282 190, 266 190, 256 200 Z" 
        fill="url(#heartGradient)" 
        stroke="#DC2626" 
        stroke-width="2"/>
        
  <!-- Small sparkles -->
  <circle cx="320" cy="180" r="4" fill="#FCD34D" opacity="0.8"/>
  <circle cx="190" cy="160" r="3" fill="#FCD34D" opacity="0.7"/>
  <circle cx="350" cy="220" r="3" fill="#7DD3FC" opacity="0.8"/>
  <circle cx="160" cy="200" r="2" fill="#7DD3FC" opacity="0.7"/>
</svg>
